<svg width="26" height="26" viewBox="0 0 26 26" fill="none" xmlns="http://www.w3.org/2000/svg">
<g clip-path="url(#clip0_63_108)">
<path d="M11.7433 0.052C9.75867 0.337999 8.502 0.719334 7.02867 1.47333C3.458 3.31933 0.988002 6.656 0.199335 10.7033C-0.00866504 11.7867 -0.00866504 14.2133 0.199335 15.2967C0.719335 17.9313 1.99334 20.3667 3.81334 22.1867C5.63334 24.0067 8.06867 25.2807 10.7033 25.8007C11.7867 26.0087 14.2133 26.0087 15.2967 25.8007C17.9313 25.2807 20.3667 24.0067 22.1867 22.1867C24.0067 20.3667 25.2807 17.9313 25.8007 15.2967C26.0087 14.2133 26.0087 11.7867 25.8007 10.7033C25.2807 8.06867 24.0067 5.63333 22.1867 3.81333C20.41 2.03667 18.0093 0.754 15.522 0.251333C14.7247 0.0866661 12.35 -0.0346661 11.7433 0.052ZM15.9813 6.04933C16.0593 6.708 16.4493 7.52267 16.952 8.06C17.4633 8.606 18.3647 9.074 19.0667 9.152L19.5867 9.21267V10.5127V11.8127L18.954 11.7607C18.148 11.6913 17.2813 11.4227 16.5013 11.0067L15.886 10.6773L15.834 13.598C15.7907 16.77 15.7647 16.9173 15.236 17.9833C14.8807 18.6767 13.9707 19.5693 13.2513 19.9247C11.4053 20.826 9.34267 20.514 7.878 19.0927C5.98 17.264 5.94534 14.3347 7.79134 12.4713C8.79667 11.4573 9.89734 11.05 11.466 11.0847L11.7867 11.0933V12.35V13.598L11.3793 13.546C10.088 13.3987 8.92667 14.43 8.92667 15.7213C8.93534 16.9953 9.86267 17.94 11.1193 17.94C11.9773 17.94 12.6273 17.55 13.052 16.796L13.3033 16.3367L13.3293 10.9373L13.3553 5.54667H14.638H15.9207L15.9813 6.04933Z" fill="white"/>
</g>
<defs>
<clipPath id="clip0_63_108">
<rect width="26" height="26" fill="white"/>
</clipPath>
</defs>
</svg>
